<svg width="115" height="24" viewBox="0 0 115 24" fill="none" xmlns="http://www.w3.org/2000/svg">
<path d="M9.29384 0L0 24H7.66114L13.3128 9.45078L18.9645 24H26.5L17.2062 0H9.29384Z" fill="white"/>
<path d="M9.16825 14.0518H17.4573V19.5233H9.16825V14.0518Z" fill="white"/>
<path d="M34 0C30.134 0 27 3.1017 27 6.92784V17.0722C27 20.8983 30.134 24 34 24H47.75V18.5567H36.75C35.5074 18.5567 34.5 17.5597 34.5 16.3299V6.92783C34.5 5.698 35.5074 4.70103 36.75 4.70103H47.75V0H34Z" fill="white"/>
<path d="M54 4.89796H61V19.102H54V4.89796Z" fill="white"/>
<path d="M50.5 0H64.5V4.89796H50.5V0Z" fill="white"/>
<path d="M50.5 19.102H64.5V24H50.5V19.102Z" fill="white"/>
<path d="M73.5 0H66.25V24H73.25L73.25 11.8763L80.5 24H87V0H80V10.6392L73.5 0Z" fill="white"/>
<path d="M97.7938 0L88.5 24H96.1611L101.813 9.45078L107.464 24H115L105.706 0H97.7938Z" fill="white"/>
<path d="M97.6682 14.0518H105.957V19.5233H97.6682V14.0518Z" fill="white"/>
</svg>
