<svg width="78" height="16" viewBox="0 0 78 16" fill="none" xmlns="http://www.w3.org/2000/svg">
<path d="M6.30365 0L0 16H5.19625L9.02955 6.30052L12.8628 16H17.9739L11.6703 0H6.30365Z" fill="white"/>
<path d="M6.21846 9.36788H11.8406V13.0155H6.21846V9.36788Z" fill="white"/>
<path d="M23.0609 0C20.4387 0 18.313 2.0678 18.313 4.61856V11.3814C18.313 13.9322 20.4387 16 23.0609 16H32.387V12.3711H24.9261C24.0833 12.3711 23.4 11.7065 23.4 10.8866V4.61856C23.4 3.79867 24.0833 3.13402 24.9261 3.13402H32.387V0H23.0609Z" fill="white"/>
<path d="M36.6261 3.26531H41.3739V12.7347H36.6261V3.26531Z" fill="white"/>
<path d="M34.2522 0H43.7478V3.26531H34.2522V0Z" fill="white"/>
<path d="M34.2522 12.7347H43.7478V16H34.2522V12.7347Z" fill="white"/>
<path d="M49.8522 0H44.9348V16H49.6826L49.6826 7.91753L54.6 16H59.0087V0H54.2609V7.09278L49.8522 0Z" fill="white"/>
<path d="M66.3297 0L60.0261 16H65.2223L69.0556 6.30052L72.8889 16H78L71.6964 0H66.3297Z" fill="white"/>
<path d="M66.2446 9.36788H71.8667V13.0155H66.2446V9.36788Z" fill="white"/>
</svg>
